HIERARCHY
ROOT SpineBase
{
  OFFSET 0.000000 0.000000 0.000000
  CHANNELS 6 Xposition Yposition Zposition Zrotation Xrotation Yrotation
  JOINT SpineMid
  {
    OFFSET 0.000000 32.334159 0.000000
    CHANNELS 3 Zrotation Xrotation Yrotation
    JOINT SpineShoulder
    {
      OFFSET 0.152815 23.956259 -0.789334
      CHANNELS 3 Zrotation Xrotation Yrotation
      JOINT Neck
      {
        OFFSET 0.117776 7.910239 -0.595961
        CHANNELS 3 Zrotation Xrotation Yrotation
        JOINT Head
        {
          OFFSET -5.519347 14.092113 -1.105990
          CHANNELS 3 Zrotation Xrotation Yrotation
          End Site
          {
            OFFSET 0 0 0
          }
        }
      }
      JOINT ShoulderLeft
      {
        OFFSET -17.467993 -6.758076 6.142805
        CHANNELS 3 Zrotation Xrotation Yrotation
        JOINT ElbowLeft
        {
          OFFSET -1.536191 -26.801894 4.002450
          CHANNELS 3 Zrotation Xrotation Yrotation
          JOINT WristLeft
          {
            OFFSET 0.292480 -22.723125 -3.324868
            CHANNELS 3 Zrotation Xrotation Yrotation
            JOINT HandLeft
            {
              OFFSET 0.203427 -4.884530 -1.970794
              CHANNELS 3 Zrotation Xrotation Yrotation
              JOINT HandTipLeft
              {
                OFFSET 0.802381 -6.844820 -2.065519
                CHANNELS 3 Zrotation Xrotation Yrotation
                End Site
                {
                  OFFSET 0 0 0
                }
              }
              JOINT ThumbLeft
              {
                OFFSET -0.898145 -5.774532 -1.991840
                CHANNELS 3 Zrotation Xrotation Yrotation
                End Site
                {
                  OFFSET 0 0 0
                }
              }
            }
          }
        }
      }
      JOINT ShoulderRight
      {
        OFFSET 15.573588 -3.394091 -7.857305
        CHANNELS 3 Zrotation Xrotation Yrotation
        JOINT ElbowRight
        {
          OFFSET 7.408333 -26.532811 0.190053
          CHANNELS 3 Zrotation Xrotation Yrotation
          JOINT WristRight
          {
            OFFSET -0.317484 -21.959398 -4.302705
            CHANNELS 3 Zrotation Xrotation Yrotation
            JOINT HandRight
            {
              OFFSET -2.227634 -7.816997 -1.040554
              CHANNELS 3 Zrotation Xrotation Yrotation
              JOINT HandTipRight
              {
                OFFSET -0.238549 -7.428294 -0.993425
                CHANNELS 3 Zrotation Xrotation Yrotation
                End Site
                {
                  OFFSET 0 0 0
                }
              }
              JOINT ThumbRight
              {
                OFFSET -3.030060 -0.050243 -2.717492
                CHANNELS 3 Zrotation Xrotation Yrotation
                End Site
                {
                  OFFSET 0 0 0
                }
              }
            }
          }
        }
      }
    }
  }
  JOINT HipLeft
  {
    OFFSET -6.157908 -0.032474 -1.273574
    CHANNELS 3 Zrotation Xrotation Yrotation
    JOINT KneeLeft
    {
      OFFSET 1.934763 -35.787657 6.033819
      CHANNELS 3 Zrotation Xrotation Yrotation
      JOINT AnkleLeft
      {
        OFFSET 3.719258 -35.316958 8.667328
        CHANNELS 3 Zrotation Xrotation Yrotation
        JOINT FootLeft
        {
          OFFSET 0.582112 -8.212784 -6.302891
          CHANNELS 3 Zrotation Xrotation Yrotation
          End Site
          {
            OFFSET 0 0 0
          }
        }
      }
    }
  }
  JOINT HipRight
  {
    OFFSET 7.706494 1.751145 -6.007869
    CHANNELS 3 Zrotation Xrotation Yrotation
    JOINT KneeRight
    {
      OFFSET 8.750690 -33.671296 2.462699
      CHANNELS 3 Zrotation Xrotation Yrotation
      JOINT AnkleRight
      {
        OFFSET 3.808628 -35.880994 7.646227
        CHANNELS 3 Zrotation Xrotation Yrotation
        JOINT FootRight
        {
          OFFSET -2.938625 -4.966811 -11.343402
          CHANNELS 3 Zrotation Xrotation Yrotation
          End Site
          {
            OFFSET 0 0 0
          }
        }
      }
    }
  }
}
MOTION
Frames: 15
Frame Time: 0.033333
-68.803644 79.367042 329.725195 0.935776 -2.163392 15.218751 0.011027 0.389175 -15.163304 0.268184 0.440928 0.056075 1.792150 7.501801 2.313065 0.000000 0.000000 0.000000 -2.916870 -0.729439 -0.230781 6.518425 -11.658093 -0.361238 -6.700089 0.639185 2.014495 -8.750917 9.518474 4.498594 0.000000 0.000000 0.000000 0.000000 0.000000 0.000000 -105.393018 46.134261 92.037959 -0.557930 -25.233486 -27.589111 7.554403 1.724863 -14.348762 4.186933 15.825154 21.736969 0.000000 0.000000 0.000000 0.000000 0.000000 0.000000 -2.302114 2.440008 -15.459155 1.756761 1.762236 0.445840 -5.861968 0.346845 4.552461 0.000000 0.000000 0.000000 -0.805661 6.226073 -14.317162 0.493391 -4.160776 -1.110318 7.138159 -21.591447 1.000550 0.000000 0.000000 0.000000
-68.715099 79.306698 329.666649 1.033148 -1.965644 14.598804 -0.037986 0.377574 -14.541959 0.239158 0.421976 0.056003 1.605767 6.743768 2.099035 0.000000 0.000000 0.000000 -2.946118 -0.888297 -0.236731 7.600681 -13.341317 -0.366024 -9.339931 6.304472 3.574037 -6.709651 7.122504 3.026644 0.000000 0.000000 0.000000 0.000000 0.000000 0.000000 -104.565750 44.965485 89.150255 1.730995 -22.952367 -24.644074 7.931974 -0.225270 -14.783777 4.198669 16.361890 21.923535 0.000000 0.000000 0.000000 0.000000 0.000000 0.000000 -2.609602 2.080638 -14.866317 1.870278 2.010679 0.479460 -5.880937 0.331913 4.534326 0.000000 0.000000 0.000000 -1.081725 6.377332 -13.618039 0.652401 -4.674886 -1.191520 10.814592 -32.113929 1.544766 0.000000 0.000000 0.000000
-68.648224 79.301935 329.590144 1.112857 -1.858713 14.496970 -0.100688 0.296538 -14.437242 0.195272 0.344646 0.056848 1.688088 6.770643 2.082232 0.000000 0.000000 0.000000 -2.940690 -0.824875 -0.234529 8.393528 -14.470264 -0.353531 -10.606774 10.585211 4.371196 -9.844595 -5.196904 1.458141 0.000000 0.000000 0.000000 0.000000 0.000000 0.000000 -105.165350 44.277109 89.050816 2.197262 -22.779291 -24.255867 7.592513 -0.586265 -15.030543 4.968841 16.792238 22.298890 0.000000 0.000000 0.000000 0.000000 0.000000 0.000000 -2.803031 1.878717 -14.781173 1.966818 2.230623 0.512383 -5.767185 0.231312 4.384641 0.000000 0.000000 0.000000 -1.269023 6.405929 -13.491335 0.804319 -4.913866 -1.204964 10.163073 -30.468490 1.571128 0.000000 0.000000 0.000000
-68.610288 79.337208 329.522334 1.164980 -1.831231 14.611256 -0.140611 0.209526 -14.548313 0.173125 0.285614 0.058863 1.809014 7.256224 2.205958 0.000000 0.000000 0.000000 -2.953087 -0.700993 -0.231864 8.735810 -14.775685 -0.352233 -11.717127 9.836431 4.948922 -11.439497 -5.934851 1.678349 0.000000 0.000000 0.000000 0.000000 0.000000 0.000000 -105.968062 43.946573 89.753252 1.558253 -22.191250 -24.793106 9.550541 -2.786685 -14.674280 3.533194 16.872321 21.441331 0.000000 0.000000 0.000000 0.000000 0.000000 0.000000 -2.899076 1.776257 -14.903151 2.043477 2.458040 0.545572 -5.118893 -0.026115 3.797293 0.000000 0.000000 0.000000 -1.426186 6.395974 -13.611491 0.978174 -4.951379 -1.174573 6.772168 -20.969986 1.488899 0.000000 0.000000 0.000000
-68.574983 79.354326 329.461549 1.194959 -1.808390 14.445646 -0.154528 0.171075 -14.381112 0.146871 0.252250 0.059347 1.907998 7.513733 2.278056 0.000000 0.000000 0.000000 -2.952975 -0.652473 -0.230391 8.458210 -14.008219 -0.378295 -10.185598 8.980843 3.973588 -9.499009 -2.850983 1.986421 0.000000 0.000000 0.000000 0.000000 0.000000 0.000000 -106.247077 43.918823 90.134324 0.978703 -21.965217 -25.300003 11.387216 -3.803844 -14.099237 2.562760 15.961823 20.421165 0.000000 0.000000 0.000000 0.000000 0.000000 0.000000 -3.038736 1.621169 -14.755801 2.200371 2.695564 0.590517 -5.386845 -0.213065 3.875622 0.000000 0.000000 0.000000 -1.581084 6.436416 -13.435950 1.174805 -5.020629 -1.150071 3.295859 -11.035209 2.241842 0.000000 0.000000 0.000000
-68.528447 79.364656 329.396015 1.232774 -1.776705 14.278450 -0.167421 0.148228 -14.212415 0.126942 0.232424 0.059885 1.942814 7.745022 2.355884 0.000000 0.000000 0.000000 -2.964236 -0.641158 -0.230673 8.551087 -14.040311 -0.381054 -10.671535 11.504749 4.365042 -7.410119 -2.608244 1.283734 0.000000 0.000000 0.000000 0.000000 0.000000 0.000000 -106.206339 44.187198 90.444461 0.188597 -21.578721 -25.897162 13.492862 -4.392004 -13.356992 -0.277150 15.695311 19.610530 0.000000 0.000000 0.000000 0.000000 0.000000 0.000000 -3.179422 1.495244 -14.605040 2.347528 2.824005 0.623662 -5.994524 -0.375480 4.229724 0.000000 0.000000 0.000000 -1.796980 6.479669 -13.259171 1.442736 -5.070470 -1.111642 1.520165 -5.898702 2.577074 0.000000 0.000000 0.000000
-68.479313 79.367166 329.328044 1.260499 -1.726870 14.130699 -0.173033 0.139140 -14.064188 0.109011 0.225608 0.059702 1.955493 7.907699 2.428712 0.000000 0.000000 0.000000 -2.971145 -0.675623 -0.231946 8.605171 -14.055708 -0.382816 -11.472719 14.696644 5.016756 -5.928920 -3.213483 0.669836 0.000000 0.000000 0.000000 0.000000 0.000000 0.000000 -105.853703 44.840521 90.836611 -0.923770 -21.164218 -26.745564 15.271544 -4.276336 -12.661278 -1.265045 15.014688 19.028081 0.000000 0.000000 0.000000 0.000000 0.000000 0.000000 -3.300988 1.383743 -14.472514 2.479559 2.868219 0.647111 -7.023858 -0.642373 4.906995 0.000000 0.000000 0.000000 -2.015971 6.450816 -13.116347 1.679355 -5.018089 -1.063737 0.980787 -4.336845 2.555672 0.000000 0.000000 0.000000
-68.439329 79.362755 329.273237 1.272979 -1.670398 14.066007 -0.161441 0.152308 -14.000114 0.090343 0.228985 0.058795 1.968817 8.001420 2.494667 0.000000 0.000000 0.000000 -2.973559 -0.752165 -0.234104 8.652066 -14.060425 -0.384683 -11.615546 20.480744 5.367708 -7.078831 -11.472325 -0.728723 0.000000 0.000000 0.000000 0.000000 0.000000 0.000000 -105.719903 45.583509 91.654239 -2.199349 -21.253592 -27.985249 15.723300 -3.581555 -12.411879 -2.146594 12.807854 17.987815 0.000000 0.000000 0.000000 0.000000 0.000000 0.000000 -3.386339 1.308003 -14.419813 2.568214 2.828995 0.656357 -7.890751 -0.744466 5.519539 0.000000 0.000000 0.000000 -2.175560 6.379449 -13.064635 1.815084 -4.944360 -1.031755 1.622150 -6.048077 2.125571 0.000000 0.000000 0.000000
-68.399294 79.360451 329.220750 1.285213 -1.592613 13.883610 -0.150320 0.175293 -13.818974 0.076829 0.237631 0.057690 1.912399 7.919345 2.512447 0.000000 0.000000 0.000000 -2.978398 -0.865000 -0.237394 8.698653 -14.068390 -0.386377 -12.454586 21.109059 5.957804 -7.232331 -12.718531 -1.141824 0.000000 0.000000 0.000000 0.000000 0.000000 0.000000 -105.389543 46.107860 91.866897 -2.835211 -20.971943 -28.469082 15.875157 -2.823419 -12.327072 -3.127199 12.115930 17.758024 0.000000 0.000000 0.000000 0.000000 0.000000 0.000000 -3.466421 1.151445 -14.250979 2.578573 2.855933 0.653825 -8.689520 -0.611092 6.158906 0.000000 0.000000 0.000000 -2.320498 6.261549 -12.899039 1.838505 -4.851724 -1.022191 3.459477 -11.473363 1.655571 0.000000 0.000000 0.000000
-68.370684 79.358368 329.183060 1.282822 -1.515660 13.715590 -0.128763 0.207336 -13.652911 0.068802 0.244305 0.056602 1.797755 7.751581 2.502747 0.000000 0.000000 0.000000 -2.982154 -0.986132 -0.240845 8.735520 -14.075439 -0.387695 -13.340743 22.392025 6.625307 -7.124624 -12.883737 -1.332760 0.000000 0.000000 0.000000 0.000000 0.000000 0.000000 -104.978365 46.405288 91.652668 -2.973951 -20.611211 -28.436791 15.953427 -2.335842 -12.297736 -2.773685 11.884455 17.916744 0.000000 0.000000 0.000000 0.000000 0.000000 0.000000 -3.502804 0.987883 -14.093208 2.528594 2.885130 0.640610 -9.246292 -0.221995 6.677629 0.000000 0.000000 0.000000 -2.403950 6.134695 -12.747639 1.774217 -4.785902 -1.033218 3.938692 -12.287306 1.294371 0.000000 0.000000 0.000000
-68.354296 79.351092 329.166436 1.267337 -1.447464 13.479908 -0.106155 0.246658 -13.419713 0.062613 0.252004 0.055063 1.677866 7.488521 2.458173 0.000000 0.000000 0.000000 -2.974427 -1.106809 -0.243542 8.762321 -14.079742 -0.388683 -14.062802 22.489516 7.124257 -7.980755 -11.985061 -1.138531 0.000000 0.000000 0.000000 0.000000 0.000000 0.000000 -104.344445 46.315438 90.614376 -2.329186 -19.764151 -27.451649 16.334429 -2.321742 -12.236973 -3.128955 10.571651 17.405839 0.000000 0.000000 0.000000 0.000000 0.000000 0.000000 -3.479274 0.812694 -13.861474 2.402665 2.970142 0.620019 -9.188922 0.205152 6.757339 0.000000 0.000000 0.000000 -2.433819 6.042414 -12.517609 1.672418 -4.734600 -1.055520 8.013808 -24.279629 0.779408 0.000000 0.000000 0.000000
-68.349168 79.343218 329.176699 1.241853 -1.375535 13.300739 -0.090910 0.279287 -13.243450 0.056651 0.259237 0.052953 1.560066 7.144252 2.381651 0.000000 0.000000 0.000000 -2.951474 -1.222099 -0.245075 8.774501 -14.079251 -0.389224 -14.736453 22.440860 7.587698 -7.172159 -11.403778 -1.235845 0.000000 0.000000 0.000000 0.000000 0.000000 0.000000 -104.065501 45.924177 89.682179 -1.379662 -19.599597 -26.458981 16.278533 -2.300321 -12.277762 -3.733769 10.361560 17.247934 0.000000 0.000000 0.000000 0.000000 0.000000 0.000000 -3.421746 0.663230 -13.682008 2.240906 3.037476 0.593629 -8.416107 -0.980129 6.143101 0.000000 0.000000 0.000000 -2.384059 5.944412 -12.341394 1.478935 -4.769565 -1.103941 10.697406 -31.479942 1.023182 0.000000 0.000000 0.000000
-68.340379 79.337922 329.191871 1.216474 -1.332209 13.152679 -0.074605 0.300051 -13.097455 0.050487 0.249564 0.051717 1.539809 6.988694 2.349939 0.000000 0.000000 0.000000 -2.931958 -1.280436 -0.245284 8.791501 -14.082665 -0.389804 -15.394435 20.630650 7.926081 -6.021506 -10.268875 -1.326476 0.000000 0.000000 0.000000 0.000000 0.000000 0.000000 -103.878251 45.999987 89.538910 -1.283096 -19.379969 -26.290965 16.022783 -2.671674 -12.422791 -3.651033 10.431554 17.272407 0.000000 0.000000 0.000000 0.000000 0.000000 0.000000 -3.340933 0.561310 -13.528612 2.043870 3.102945 0.562085 -7.305314 0.801385 5.603614 0.000000 0.000000 0.000000 -2.296221 5.864767 -12.196132 1.223303 -4.841403 -1.168457 12.932624 -36.745374 1.384147 0.000000 0.000000 0.000000
-68.322802 79.329210 329.188790 1.202521 -1.274981 12.982371 -0.069522 0.288345 -12.928442 0.042562 0.235822 0.050942 1.505436 6.832925 2.307320 0.000000 0.000000 0.000000 -2.918609 -1.314390 -0.245252 8.809123 -14.086817 -0.390377 -16.039008 21.171808 8.401244 -3.929247 -6.206891 -0.791562 0.000000 0.000000 0.000000 0.000000 0.000000 0.000000 -103.913896 46.047139 89.663884 -1.203767 -19.449350 -26.278724 16.135499 -2.820977 -12.384258 -4.214257 10.574147 17.175259 0.000000 0.000000 0.000000 0.000000 0.000000 0.000000 -3.282545 0.425317 -13.355294 1.866430 3.207371 0.537238 -6.280170 1.103550 4.955538 0.000000 0.000000 0.000000 -2.274627 5.741382 -12.039894 1.059070 -4.804228 -1.195959 10.186288 -29.027001 0.781103 0.000000 0.000000 0.000000
-68.300439 79.320950 329.168131 1.193062 -1.210717 12.824641 -0.077122 0.253429 -12.771646 0.029740 0.221675 0.049886 1.529779 6.696330 2.264539 0.000000 0.000000 0.000000 -2.897405 -1.329435 -0.244179 8.824233 -14.092801 -0.390754 -16.197599 26.678865 8.871093 -5.025384 -11.757122 -1.627602 0.000000 0.000000 0.000000 0.000000 0.000000 0.000000 -104.092618 46.098319 90.011087 -1.221942 -19.741973 -26.457554 16.052265 -2.788788 -12.394475 -3.248237 11.306441 17.691444 0.000000 0.000000 0.000000 0.000000 0.000000 0.000000 -3.224796 0.284638 -13.193823 1.710791 3.287491 0.514723 -6.809494 -0.525311 5.272368 0.000000 0.000000 0.000000 -2.288420 5.589486 -11.904306 0.955932 -4.712414 -1.199871 6.859626 -18.917070 0.729064 0.000000 0.000000 0.000000
